<?xml version="1.0" encoding="utf-8"?>
<!-- Generator: Adobe Illustrator 28.0.0, SVG Export Plug-In . SVG Version: 6.00 Build 0)  -->
<svg version="1.1" id="Ebene_1" xmlns="http://www.w3.org/2000/svg" xmlns:xlink="http://www.w3.org/1999/xlink" x="0px" y="0px"
	 viewBox="0 0 129 41" style="enable-background:new 0 0 129 41;" xml:space="preserve">
<style type="text/css">
	.st0{fill:#E6382D;}
</style>
<g>
	<path d="M1792.87-3349.34h40.9"/>
</g>
<rect x="-3312.19" y="1247.49" width="594.4" height="599.9"/>
<g>
	<g>
		<g>
			<g>
				<path d="M21.25,16.43c0.78,0.02,1.61,0.23,2.17,0.56l-0.05,2.36l-0.11,0.02c-0.36-0.63-1.18-1.99-1.53-2.38
					c-0.31-0.12-0.81-0.16-1.13-0.13c-0.47,0.61-1,1.98-1.17,2.99c0.05,1.24,0.48,2.88,0.9,3.52c0.5,0.09,0.98,0.1,1.41,0.01
					c0.44-0.48,1.12-1.51,1.59-2.35h0.11l0.02,2.37c-0.68,0.31-2.05,0.57-3.02,0.57c-0.92-0.29-1.48-0.64-2.08-1.3
					c-0.29-0.58-0.59-1.81-0.7-2.9C18.14,17.68,19.48,16.43,21.25,16.43z"/>
			</g>
			<g>
				<path d="M29.35,23.82h-3.79v-0.05l1.05-0.5v-6.14l-1.05-0.5v-0.05h3.79v0.05l-1.05,0.5v6.14l1.05,0.5L29.35,23.82L29.35,23.82z"
					/>
			</g>
			<g>
				<path d="M32.23,17.38l-0.83,1.35l-0.09-0.02l-0.04-2.14h6.93l-0.04,2.14l-0.09,0.02l-1.09-1.56l-1.39-0.21v6.3l1.37,0.5v0.05
					h-4.45v-0.05l1.37-0.5v-6.3L32.23,17.38z"/>
			</g>
			<g>
				<path d="M42.24,23.82h-2.83v-0.05l1.05-0.5l2.62-6.8h0.58l2.69,6.8l1.05,0.5v0.05H43.5v-0.05l1.05-0.5l-0.56-1.47l-2.3-0.05
					l-0.49,1.53l1.05,0.5L42.24,23.82L42.24,23.82z M41.81,21.38l1.94-0.19l-1.01-2.67L41.81,21.38z"/>
			</g>
			<g>
				<path d="M49.28,23.82v-0.05l1.05-0.5v-6.14l-1.05-0.5v-0.05h3.36c1.91,0,3.17,1.07,3.72,3.19c-0.04,1.02-0.52,2.11-0.88,2.73
					c-0.75,0.86-1.7,1.33-3.19,1.33H49.28z M53.75,22.92c0.34-0.38,0.74-1.95,0.81-3.06c-0.11-0.96-0.81-2.33-1.36-2.68
					c-0.16-0.08-0.71-0.15-1.17-0.15v6.38C52.67,23.37,53.53,23.13,53.75,22.92z"/>
			</g>
			<g>
				<path d="M64.02,16.58l-0.14,1.95l-0.09,0.02l-0.89-1.41L60.81,17v3.08l1.78-0.22l0.56-0.94l0.08,0.01L63.1,21.5l-0.08,0.01
					l-0.47-1.04l-1.74-0.02v2.94l2.43-0.27l0.78-1.65l0.11,0.01v2.33h-6.07v-0.05l1.05-0.5v-6.14l-1.05-0.5v-0.05L64.02,16.58
					L64.02,16.58z"/>
			</g>
			<g>
				<path d="M70.26,16.58v0.05L69,17.13v6.27l2.43-0.27l0.78-1.86l0.11,0.01v2.55h-6.07v-0.05l1.05-0.5v-6.14l-1.05-0.5v-0.05H70.26
					z"/>
			</g>
			<g>
				<path d="M78.44,16.58v0.05l-1.26,0.5v6.27l2.43-0.27l0.78-1.86l0.11,0.01v2.55h-6.07v-0.05l1.05-0.5v-6.14l-1.05-0.5v-0.05
					H78.44z"/>
			</g>
			<g>
				<path d="M88.57,16.58l-0.14,1.95l-0.09,0.02l-0.89-1.41L85.36,17v3.08l1.78-0.22l0.56-0.94l0.08,0.01l-0.12,2.56l-0.08,0.01
					l-0.47-1.04l-1.74-0.02v2.94l2.43-0.27l0.78-1.65l0.11,0.01v2.33h-6.07v-0.05l1.05-0.5v-6.14l-1.05-0.5v-0.05L88.57,16.58
					L88.57,16.58z"/>
			</g>
			<g>
				<path d="M93.66,23.82h-2.91v-0.05l1.05-0.5L92,17.13l-1.05-0.5v-0.05h2.55l3.34,5.6l-0.32-5.05l-1.05-0.5v-0.05h2.91v0.05
					l-1.05,0.5l-0.17,6.69h-1.21l-3.6-5.92l0.25,5.36l1.05,0.5L93.66,23.82L93.66,23.82z"/>
			</g>
			<g>
				<path d="M106.03,19.65l-1.26,4.17h-1.53l-1.96-6.69l-1.05-0.5v-0.05h4v0.05l-1.05,0.5l1.51,5.36l1.39-5.92h0.95l1.72,5.94
					l0.49-1.79l0.71-3.6l-1.05-0.5v-0.05h3.2v0.05l-1.05,0.5l-2.3,6.69h-1.47L106.03,19.65z"/>
			</g>
			<g>
				<path d="M119.98,16.58l-0.14,1.95l-0.09,0.02l-0.89-1.41L116.77,17v3.08l1.78-0.22l0.56-0.94l0.08,0.01l-0.12,2.56l-0.08,0.01
					l-0.47-1.04l-1.74-0.02v2.94l2.43-0.27l0.78-1.65l0.11,0.01v2.33h-6.07v-0.05l1.05-0.5v-6.14l-1.05-0.5v-0.05L119.98,16.58
					L119.98,16.58z"/>
			</g>
			<g>
				<path d="M125.18,23.96c-0.78-0.23-1.51-0.61-2.1-1.3c-0.32-0.62-0.6-1.89-0.7-2.9c0.36-1.56,1.36-3.34,3.59-3.34
					c0.9,0,1.8,0.24,2.34,0.56l-0.05,2.36l-0.11,0.02c-0.36-0.63-1.21-2.05-1.54-2.39c-0.25-0.09-0.88-0.16-1.3-0.12
					c-0.56,0.72-1.04,2.16-1.17,2.99c0.04,0.94,0.38,2.73,0.9,3.52c0.46,0.1,1.22,0.12,1.73,0.02c0.03-0.68,0.05-1.64,0.01-2.4
					l-1.09-0.49v-0.05h2.73c0.05,0.98,0.05,2.08,0.01,2.91C127.7,23.69,126.15,24.01,125.18,23.96z"/>
			</g>
		</g>
		<g>
			<path class="st0" d="M29.88,32.01c-1.61-0.63-3.22-1.28-4.83-1.89l-0.25,0.44l-2.35,4.11c-0.44,0.8-0.93,1.83-1.41,2.8
				c-0.99-1.97-3.54-7.03-3.54-7.03l-0.31-0.62l-0.66,0.22l-7.47,2.46c0.69-2.09,2.46-7.47,2.46-7.47l0.22-0.66l-0.62-0.31
				c0,0-5.06-2.55-7.02-3.54L11.13,17l0.62-0.31l-0.22-0.66L9.07,8.57c2.09,0.69,7.47,2.46,7.47,2.46l0.66,0.22l0.31-0.62l3.54-7.02
				c0.19,0.38,0.35,0.69,0.35,0.69c0.76,1.72,2.72,5.02,3.66,6.68c2.97-1.16,6.28-2.46,9.23-3.67c-2.76,0.7-5.87,1.53-8.66,2.29
				c-0.73-1.66-2.08-4.78-2.8-6.02c-0.42-0.84-1.37-2.71-1.78-3.53l-0.72,1.42c0,0-3.41,6.77-3.94,7.83
				c-2.3-0.76-9.22-3.05-9.84-3.25c0.21,0.65,2.49,7.53,3.25,9.84l-7.83,3.94l-1.42,0.72c0.61,0.31,7.08,3.57,9.25,4.66l-2.75,8.32
				l-0.5,1.51c0.65-0.22,7.53-2.49,9.84-3.25c1.09,2.17,4.37,8.69,4.66,9.25c0.41-0.81,1.36-2.72,1.78-3.53
				c0.35-0.71,0.75-1.39,1.06-2.11c0,0,1.43-3.24,1.73-3.92c2.82,0.77,5.85,1.57,8.66,2.3C33.19,33.34,30.97,32.44,29.88,32.01z"/>
		</g>
	</g>
	<g>
		<path d="M88.32,34.94c-0.73,0-1.37-0.16-1.9-0.48c-0.53-0.32-0.95-0.77-1.23-1.34c-0.29-0.57-0.43-1.24-0.43-2
			c0-0.76,0.14-1.43,0.43-2c0.29-0.57,0.7-1.02,1.23-1.34c0.53-0.32,1.17-0.48,1.9-0.48c0.86,0,1.56,0.2,2.1,0.6s0.88,0.97,1.03,1.7
			h-1c-0.11-0.46-0.35-0.82-0.7-1.1c-0.35-0.28-0.83-0.42-1.43-0.42c-0.53,0-1,0.12-1.39,0.36s-0.71,0.59-0.92,1.05
			c-0.22,0.45-0.32,1-0.32,1.63c0,0.63,0.11,1.18,0.32,1.63c0.22,0.45,0.52,0.8,0.92,1.05c0.4,0.24,0.86,0.36,1.39,0.36
			c0.6,0,1.08-0.13,1.43-0.41c0.35-0.27,0.58-0.63,0.7-1.08h1c-0.15,0.71-0.5,1.27-1.03,1.67C89.88,34.74,89.19,34.94,88.32,34.94z"
			/>
		<path d="M95.18,34.94c-0.5,0-0.95-0.11-1.36-0.34c-0.4-0.23-0.72-0.55-0.95-0.97c-0.23-0.42-0.34-0.91-0.34-1.46
			c0-0.57,0.12-1.06,0.35-1.48c0.23-0.42,0.55-0.74,0.96-0.97c0.41-0.23,0.86-0.34,1.36-0.34c0.52,0,0.97,0.11,1.37,0.34
			c0.4,0.23,0.71,0.55,0.95,0.97c0.23,0.42,0.35,0.91,0.35,1.47c0,0.56-0.12,1.05-0.36,1.47c-0.24,0.42-0.56,0.74-0.96,0.97
			C96.16,34.83,95.7,34.94,95.18,34.94z M95.19,34.18c0.31,0,0.6-0.08,0.86-0.23c0.27-0.15,0.48-0.38,0.65-0.68
			c0.17-0.3,0.25-0.68,0.25-1.12c0-0.45-0.08-0.82-0.24-1.12c-0.16-0.3-0.37-0.52-0.63-0.68c-0.26-0.15-0.55-0.23-0.87-0.23
			c-0.3,0-0.59,0.08-0.86,0.23c-0.27,0.15-0.48,0.38-0.65,0.68c-0.16,0.3-0.24,0.67-0.24,1.12c0,0.44,0.08,0.82,0.24,1.12
			c0.16,0.3,0.37,0.53,0.63,0.68C94.6,34.11,94.88,34.18,95.19,34.18z"/>
		<path d="M101.56,34.94c-0.5,0-0.95-0.12-1.35-0.35c-0.39-0.23-0.7-0.56-0.93-0.98s-0.33-0.91-0.33-1.46
			c0-0.56,0.11-1.05,0.33-1.47c0.22-0.42,0.53-0.74,0.93-0.97c0.4-0.23,0.86-0.35,1.37-0.35c0.53,0,0.98,0.12,1.36,0.35
			c0.37,0.23,0.66,0.54,0.86,0.91c0.2,0.38,0.3,0.79,0.3,1.24c0,0.07,0,0.14,0,0.22c0,0.08,0,0.17-0.01,0.26h-4.45v-0.69h3.56
			c-0.02-0.49-0.19-0.87-0.49-1.14c-0.31-0.27-0.69-0.41-1.15-0.41c-0.3,0-0.59,0.07-0.85,0.21c-0.27,0.14-0.48,0.34-0.63,0.6
			c-0.16,0.26-0.24,0.59-0.24,0.99v0.3c0,0.44,0.08,0.8,0.24,1.1c0.16,0.3,0.37,0.52,0.63,0.67c0.26,0.15,0.54,0.22,0.84,0.22
			c0.38,0,0.69-0.08,0.94-0.25c0.25-0.17,0.43-0.39,0.54-0.68h0.89c-0.09,0.32-0.25,0.61-0.46,0.86c-0.22,0.25-0.48,0.45-0.8,0.6
			C102.36,34.87,101.99,34.94,101.56,34.94z"/>
		<path d="M107.39,34.94c-0.44,0-0.84-0.07-1.17-0.22c-0.34-0.15-0.6-0.35-0.8-0.62c-0.2-0.26-0.32-0.57-0.36-0.93h0.93
			c0.04,0.18,0.11,0.35,0.23,0.51c0.11,0.15,0.27,0.28,0.47,0.37s0.44,0.14,0.73,0.14c0.25,0,0.46-0.04,0.62-0.11
			c0.17-0.07,0.29-0.17,0.37-0.3c0.08-0.13,0.12-0.26,0.12-0.41c0-0.22-0.05-0.38-0.16-0.5c-0.1-0.11-0.26-0.2-0.46-0.27
			c-0.2-0.07-0.44-0.12-0.73-0.17c-0.24-0.04-0.47-0.1-0.7-0.17c-0.23-0.07-0.43-0.16-0.61-0.28c-0.18-0.12-0.32-0.26-0.43-0.43
			s-0.16-0.38-0.16-0.62c0-0.3,0.08-0.57,0.24-0.81c0.16-0.24,0.39-0.42,0.68-0.55c0.29-0.13,0.64-0.2,1.03-0.2
			c0.58,0,1.05,0.14,1.41,0.41c0.36,0.27,0.57,0.67,0.63,1.19h-0.89c-0.04-0.27-0.15-0.48-0.35-0.63c-0.2-0.15-0.47-0.23-0.81-0.23
			c-0.34,0-0.59,0.07-0.77,0.2c-0.18,0.13-0.26,0.31-0.26,0.53c0,0.14,0.05,0.27,0.15,0.37c0.1,0.11,0.24,0.2,0.44,0.28
			c0.19,0.08,0.43,0.14,0.7,0.19c0.36,0.06,0.69,0.15,0.98,0.25c0.29,0.11,0.53,0.26,0.72,0.47c0.18,0.21,0.27,0.5,0.27,0.88
			c0,0.33-0.08,0.62-0.25,0.87c-0.17,0.25-0.41,0.44-0.72,0.57C108.17,34.87,107.8,34.94,107.39,34.94z"/>
		<path d="M110.26,30.25V29.5h3.1v0.75H110.26z M111.09,34.82v-6.14c0-0.34,0.06-0.61,0.17-0.83c0.11-0.21,0.29-0.37,0.51-0.48
			c0.23-0.1,0.5-0.15,0.83-0.15h0.61v0.76h-0.47c-0.27,0-0.46,0.05-0.58,0.16c-0.12,0.11-0.18,0.29-0.18,0.56v6.12L111.09,34.82
			L111.09,34.82z"/>
		<path d="M116.66,34.94c-0.5,0-0.95-0.12-1.35-0.35c-0.39-0.23-0.7-0.56-0.93-0.98c-0.22-0.42-0.33-0.91-0.33-1.46
			c0-0.56,0.11-1.05,0.33-1.47c0.22-0.42,0.53-0.74,0.93-0.97c0.4-0.23,0.86-0.35,1.37-0.35c0.53,0,0.98,0.12,1.36,0.35
			c0.37,0.23,0.66,0.54,0.86,0.91s0.3,0.79,0.3,1.24c0,0.07,0,0.14,0,0.22c0,0.08,0,0.17-0.01,0.26h-4.45v-0.69h3.56
			c-0.02-0.49-0.19-0.87-0.49-1.14c-0.31-0.27-0.69-0.41-1.15-0.41c-0.3,0-0.59,0.07-0.85,0.21c-0.27,0.14-0.48,0.34-0.63,0.6
			c-0.16,0.26-0.24,0.59-0.24,0.99v0.3c0,0.44,0.08,0.8,0.24,1.1c0.16,0.3,0.37,0.52,0.63,0.67c0.26,0.15,0.54,0.22,0.84,0.22
			c0.38,0,0.69-0.08,0.94-0.25c0.25-0.17,0.43-0.39,0.54-0.68h0.89c-0.09,0.32-0.25,0.61-0.46,0.86c-0.22,0.25-0.48,0.45-0.8,0.6
			C117.45,34.87,117.08,34.94,116.66,34.94z"/>
		<path d="M120.43,34.82v-7.6h0.9v7.6H120.43z"/>
		<path d="M125.28,34.94c-0.52,0-0.99-0.12-1.38-0.36c-0.4-0.24-0.71-0.57-0.92-1c-0.22-0.42-0.32-0.9-0.32-1.44
			c0-0.53,0.11-1.01,0.32-1.43c0.22-0.42,0.52-0.75,0.92-0.99c0.4-0.24,0.86-0.36,1.39-0.36c0.44,0,0.82,0.09,1.16,0.26
			c0.33,0.18,0.59,0.42,0.78,0.74v-3.16h0.9v7.6h-0.82l-0.09-0.88c-0.11,0.18-0.26,0.34-0.44,0.49s-0.39,0.27-0.64,0.37
			C125.9,34.9,125.61,34.94,125.28,34.94z M125.38,34.17c0.36,0,0.67-0.08,0.95-0.25c0.27-0.17,0.49-0.4,0.64-0.7
			s0.23-0.65,0.23-1.06c0-0.4-0.08-0.75-0.23-1.06c-0.15-0.3-0.37-0.54-0.64-0.71c-0.27-0.17-0.59-0.25-0.95-0.25
			c-0.34,0-0.65,0.08-0.93,0.25s-0.49,0.4-0.64,0.71s-0.23,0.65-0.23,1.06c0,0.41,0.08,0.76,0.23,1.06c0.15,0.3,0.36,0.53,0.64,0.7
			S125.03,34.17,125.38,34.17z"/>
	</g>
</g>
</svg>
